<?xml version="1.0" encoding="utf-8"?>
<!-- Generator: Adobe Illustrator 26.0.3, SVG Export Plug-In . SVG Version: 6.00 Build 0)  -->
<svg version="1.1" id="visual" xmlns="http://www.w3.org/2000/svg" xmlns:xlink="http://www.w3.org/1999/xlink" x="0px" y="0px"
	 viewBox="0 0 293 242" style="enable-background:new 0 0 293 242;" xml:space="preserve">
<style type="text/css">
	.st0{fill:#66DA42;}
</style>
<g transform="translate(444.8754839918498 300.0953252620866)">
	<path class="st0" d="M-237.5-271.9c19.5,9.5,34.9,24.3,47.4,40.7c12.4,16.5,21.7,34.7,23.2,53.6c1.4,18.9-5.1,38.4-18.1,54
		c-13.1,15.5-32.8,27.1-53.7,36.7c-21,9.6-43.1,17.4-65.2,17.2c-22-0.2-43.9-8.3-63.6-18.5C-387.3-98.5-405-110.7-416-126
		c-11.1-15.3-15.5-33.8-15-52c0.6-18.2,6.2-36.1,15.7-53.7c9.5-17.5,22.9-34.6,42.1-44.3c19.2-9.6,44.2-11.8,68.4-10.8
		C-280.5-285.7-257-281.4-237.5-271.9"/>
</g>
<g>
	<path d="M44.5,124.3c0-7.5,5.8-12.7,13.8-12.7c5.2,0,9.3,2.3,11.1,6.3l-5.6,3c-1.3-2.3-3.3-3.4-5.6-3.4c-3.6,0-6.5,2.5-6.5,6.9
		c0,4.3,2.9,6.9,6.5,6.9c2.3,0,4.2-1,5.6-3.4l5.6,3c-1.8,4-5.9,6.3-11.1,6.3C50.3,137,44.5,131.7,44.5,124.3z"/>
	<path d="M72.7,124.3c0-7.5,5.8-12.7,13.6-12.7c7.9,0,13.6,5.3,13.6,12.7c0,7.5-5.7,12.7-13.6,12.7C78.4,137,72.7,131.7,72.7,124.3z
		 M92.6,124.3c0-4.3-2.7-6.9-6.3-6.9s-6.3,2.6-6.3,6.9c0,4.3,2.8,6.9,6.3,6.9S92.6,128.5,92.6,124.3z"/>
	<path d="M131.2,122.5v14.2h-7.2v-13.1c0-4-1.8-5.8-5-5.8c-3.5,0-5.9,2.1-5.9,6.7v12.2h-7.2v-24.8h6.9v2.9c1.9-2.1,4.8-3.3,8.2-3.3
		C126.8,111.5,131.2,114.9,131.2,122.5z"/>
	<path d="M164.3,122.5v14.2h-7.2v-13.1c0-4-1.8-5.8-5-5.8c-3.5,0-5.9,2.1-5.9,6.7v12.2H139v-24.8h6.9v2.9c1.9-2.1,4.8-3.3,8.2-3.3
		C159.9,111.5,164.3,114.9,164.3,122.5z"/>
	<path d="M196.5,126.3h-18.7c0.7,3.1,3.3,5,7.1,5c2.6,0,4.5-0.8,6.2-2.4l3.8,4.1c-2.3,2.6-5.8,4-10.2,4c-8.6,0-14.1-5.4-14.1-12.7
		c0-7.4,5.7-12.7,13.2-12.7c7.3,0,12.9,4.9,12.9,12.8C196.6,124.9,196.5,125.7,196.5,126.3z M177.6,122.1h12.2
		c-0.5-3.1-2.9-5.2-6.1-5.2C180.5,117,178.2,118.9,177.6,122.1z"/>
	<path d="M200.8,124.3c0-7.5,5.8-12.7,13.8-12.7c5.2,0,9.3,2.3,11.1,6.3l-5.6,3c-1.3-2.3-3.3-3.4-5.6-3.4c-3.6,0-6.5,2.5-6.5,6.9
		c0,4.3,2.9,6.9,6.5,6.9c2.3,0,4.2-1,5.6-3.4l5.6,3c-1.8,4-5.9,6.3-11.1,6.3C206.6,137,200.8,131.7,200.8,124.3z"/>
	<path d="M247.5,135.4c-1.5,1.1-3.6,1.6-5.8,1.6c-5.8,0-9.2-3-9.2-8.9V118h-3.8v-5.5h3.8v-6h7.2v6h6.2v5.5h-6.2V128
		c0,2.1,1.2,3.3,3.1,3.3c1.1,0,2.1-0.3,2.9-0.9L247.5,135.4z"/>
</g>
</svg>
