<?xml version="1.0" encoding="utf-8"?>
<!-- Generator: Adobe Illustrator 26.0.3, SVG Export Plug-In . SVG Version: 6.00 Build 0)  -->
<svg version="1.1" id="visual" xmlns="http://www.w3.org/2000/svg" xmlns:xlink="http://www.w3.org/1999/xlink" x="0px" y="0px"
	 viewBox="0 0 288 248.8" style="enable-background:new 0 0 288 248.8;" xml:space="preserve">
<style type="text/css">
	.st0{fill:#66DA42;}
</style>
<g transform="translate(485.47421209268674 296.8140787695021)">
	<path class="st0" d="M-216.7-195c16.5,42,13.7,88-23.9,114.8c-37.6,26.7-110.1,34.1-162.3,6.4c-52.1-27.7-83.8-90.5-64-136.2
		c19.7-45.8,91.1-74.5,144.6-69.8C-268.8-275-233.2-237-216.7-195"/>
</g>
<g>
	<path d="M72,129.6c0,7.8-5.4,12.7-12.3,12.7c-3.1,0-5.6-1-7.5-3v11.5H45v-33.7h6.9v2.9c1.8-2.2,4.5-3.2,7.8-3.2
		C66.6,116.9,72,121.9,72,129.6z M64.7,129.6c0-4.3-2.7-6.9-6.3-6.9s-6.3,2.6-6.3,6.9c0,4.3,2.7,6.9,6.3,6.9S64.7,133.9,64.7,129.6z
		"/>
	<path d="M93.4,116.9v6.6c-0.6,0-1.1-0.1-1.6-0.1c-4,0-6.6,2.2-6.6,6.9V142H78v-24.8h6.9v3.3C86.6,118.1,89.6,116.9,93.4,116.9z"/>
	<path d="M96.9,129.6c0-7.5,5.8-12.7,13.6-12.7c7.9,0,13.6,5.3,13.6,12.7c0,7.5-5.7,12.7-13.6,12.7
		C102.6,142.4,96.9,137.1,96.9,129.6z M116.8,129.6c0-4.3-2.7-6.9-6.3-6.9s-6.3,2.6-6.3,6.9c0,4.3,2.8,6.9,6.3,6.9
		S116.8,133.9,116.8,129.6z"/>
	<path d="M122.6,149.9l1.9-5.2c0.8,0.6,1.8,0.9,3,0.9c1.8,0,2.9-1.2,2.9-3.6v-24.8h7.2V142c0,5.7-3.4,9.3-9.3,9.3
		C126.1,151.3,123.9,150.9,122.6,149.9z M129.6,109.8c0-2.3,1.8-4,4.5-4c2.7,0,4.5,1.7,4.5,3.9c0,2.4-1.8,4.1-4.5,4.1
		C131.4,113.8,129.6,112.1,129.6,109.8z"/>
	<path d="M169.7,131.7h-18.7c0.7,3.1,3.3,5,7.1,5c2.6,0,4.5-0.8,6.2-2.4l3.8,4.1c-2.3,2.6-5.8,4-10.2,4c-8.6,0-14.1-5.4-14.1-12.7
		c0-7.4,5.7-12.7,13.2-12.7c7.3,0,12.9,4.9,12.9,12.8C169.8,130.3,169.7,131.1,169.7,131.7z M150.8,127.5H163
		c-0.5-3.1-2.9-5.2-6.1-5.2C153.7,122.3,151.3,124.3,150.8,127.5z"/>
	<path d="M174,129.6c0-7.5,5.8-12.7,13.8-12.7c5.2,0,9.3,2.3,11.1,6.3l-5.6,3c-1.3-2.3-3.3-3.4-5.6-3.4c-3.6,0-6.5,2.5-6.5,6.9
		c0,4.3,2.9,6.9,6.5,6.9c2.3,0,4.2-1,5.6-3.4l5.6,3c-1.8,4-5.9,6.3-11.1,6.3C179.8,142.4,174,137.1,174,129.6z"/>
	<path d="M220.7,140.8c-1.5,1.1-3.6,1.6-5.8,1.6c-5.8,0-9.2-3-9.2-8.9v-10.2h-3.8v-5.5h3.8v-6h7.2v6h6.2v5.5h-6.2v10.1
		c0,2.1,1.2,3.3,3.1,3.3c1.1,0,2.1-0.3,2.9-0.9L220.7,140.8z"/>
	<path d="M223.6,139.7l2.4-5.2c2.2,1.4,5.6,2.4,8.6,2.4c3.3,0,4.6-0.9,4.6-2.3c0-4-15,0.1-15-9.8c0-4.7,4.2-8,11.5-8
		c3.4,0,7.2,0.8,9.5,2.2l-2.4,5.1c-2.4-1.4-4.9-1.8-7.1-1.8c-3.2,0-4.6,1-4.6,2.3c0,4.2,15,0.1,15,9.9c0,4.6-4.3,7.9-11.7,7.9
		C230.1,142.4,225.9,141.2,223.6,139.7z"/>
</g>
</svg>
