<?xml version="1.0" encoding="utf-8"?>
<!-- Generator: Adobe Illustrator 26.0.3, SVG Export Plug-In . SVG Version: 6.00 Build 0)  -->
<svg version="1.1" id="Layer_1" xmlns="http://www.w3.org/2000/svg" xmlns:xlink="http://www.w3.org/1999/xlink" x="0px" y="0px"
	 viewBox="0 0 640 130.9" style="enable-background:new 0 0 640 130.9;" xml:space="preserve">
<style type="text/css">
	.st0{enable-background:new    ;}
	.st1{fill:none;stroke:#000000;stroke-width:3;stroke-miterlimit:10;}
	.st2{stroke:#000000;stroke-miterlimit:10;}
</style>
<g id="Layer_1_00000121999476569541382490000000228727877794158222_">
</g>
<g class="st0">
	<path class="st1" d="M315.4,44.9H332l4.9,24.3c0.9,5.2,1.5,10.4,2.3,16.3h0.4c1-5.9,1.8-11.2,3-16.3l5.5-24.3h14.9l5.8,24.3
		c1.2,5.2,2.2,10.4,3.2,16.3h0.4c1-5.9,1.4-11.1,2.4-16.3l4.8-24.3h15.5l-12.7,54h-20l-4.3-20.7c-1-5-1.8-9.8-2.7-16H355
		c-0.9,6.2-1.5,11-2.5,16l-4.2,20.7h-19.4L315.4,44.9z"/>
	<path class="st1" d="M410,22.9h16.7v18.3l-0.8,9.7c4-3.6,9.2-7.3,16.6-7.3c11.7,0,16.7,8.4,16.7,21.8v33.5h-16.8V67.6
		c0-7.5-2-9.8-6.3-9.8c-3.8,0-6.1,1.8-9.5,4.9v36.2H410V22.9z"/>
	<path class="st1" d="M476.8,118.4l2.9-12.4c1.7,0.4,2.5,0.5,3.6,0.5c5.2,0,7.8-2.7,9.1-6.6l0.8-2.6l-20.7-52.5h16.8l7.4,22.4
		c1.5,5,2.7,10,4.1,15.3h0.4c1.2-5.1,2.3-10.2,3.7-15.3l6.2-22.4h16.1L508.6,99c-5.3,13.9-11.1,20.7-24,20.7
		C481.1,119.7,478.9,119.3,476.8,118.4z"/>
	<path class="st1" d="M542.9,78.9V58h-7.3V45.4l8.3-0.5l2-16.5h13.9v16.5h12.7V58h-12.7v20.6c0,6.1,2.8,8.4,6.8,8.4
		c1.7,0,3.6-0.2,5-0.8l2.6,11.7c-2.8,1.1-7,2.2-12.3,2.2C548.5,100.2,542.9,91.6,542.9,78.9z"/>
	<path class="st1" d="M583.2,71.8c0-17.5,12.6-28.2,25.5-28.2c15.6,0,23.2,11.3,23.2,26c0,3-0.3,5.9-0.7,7.4h-31.8
		c1.5,7.3,6.6,10.4,13.5,10.4c3.9,0,7.8-1.2,11.6-3.4l5.4,10.1c-5.7,4-13,6.1-19.4,6.1C595.2,100.2,583.2,89.8,583.2,71.8z
		 M617.7,65.6c0-5.3-2.4-9.3-8.5-9.3c-4.8,0-8.8,3-9.9,9.3H617.7z"/>
</g>
<g class="st0">
	<path class="st2" d="M10.8,74.3c0-18.1,11.8-28.4,25-28.4s25.1,10.3,25.1,28.4c0,17.9-11.9,28.2-25.1,28.2S10.8,92.1,10.8,74.3z
		 M51.3,74.3c0-12.4-6.2-20.7-15.5-20.7c-9.2,0-15.4,8.3-15.4,20.7c0,12.3,6.2,20.5,15.4,20.5C45.1,94.8,51.3,86.6,51.3,74.3z"/>
	<path class="st2" d="M74.9,47.2h7.5l0.8,9.8h0.3c3.8-6.8,9.3-11.1,15.3-11.1c2.4,0,4.1,0.3,5.8,1.1l-2,7.9
		c-1.6-0.4-2.8-0.7-4.9-0.7c-4.5,0-10,3.2-13.6,12.3v34.6h-9.2V47.2z"/>
	<path class="st2" d="M112.1,30.1c0-3.6,2.6-6,6.1-6s6.1,2.4,6.1,6c0,3.7-2.6,6-6.1,6S112.1,33.8,112.1,30.1z M113.6,47.2h9.2v53.9
		h-9.2V47.2z"/>
	<path class="st2" d="M141,47.2h7.5l0.8,7.8h0.3c5.1-5.1,10.7-9.1,18.1-9.1c11.4,0,16.5,7.3,16.5,21.1v34.2H175v-33
		c0-10.1-3.1-14.3-10.2-14.3c-5.4,0-9.3,2.8-14.6,8.2v39.1H141V47.2z"/>
	<path class="st2" d="M197.7,74.3c0-18.1,12.1-28.4,26-28.4c7.1,0,12,2.8,15.8,6.3l-4.5,5.8c-3-2.8-6.4-4.4-10.8-4.4
		c-9.8,0-16.9,8.3-16.9,20.7c0,12.3,6.7,20.5,16.5,20.5c5,0,9.4-2.2,12.6-5.1l4,5.9c-4.9,4.4-11,6.9-17.4,6.9
		C208.6,102.5,197.7,92.1,197.7,74.3z"/>
	<path class="st2" d="M247.5,123.2l2-7.2c1.3,0.4,2.7,0.7,4,0.7c6,0,9.9-4.8,12.1-11.4l1.2-4l-21.6-54h9.5l10.9,29.7
		c1.8,4.7,3.6,10.2,5.3,15.2h0.4c1.4-4.9,3-10.4,4.4-15.2l9.7-29.7h9l-20.3,58.4c-3.8,10.7-9.4,18.8-20.2,18.8
		C251.4,124.3,249.3,123.9,247.5,123.2z"/>
</g>
<g id="Artboard_2_00000124141946354793980380000000411248481575644806_">
	
		<text transform="matrix(1 0 0 1 132.855 -87.7606)" style="fill:none;stroke:#000000;stroke-miterlimit:10; font-family:'SourceSansPro-Bold'; font-size:47px; letter-spacing:2;">whyte</text>
	<text transform="matrix(1 0 0 1 -3.051758e-05 -88.1602)" style="font-family:'SourceSansPro-Regular'; font-size:48px;">orincy</text>
</g>
</svg>
