<svg id="Layer_1" data-name="Layer 1" xmlns="http://www.w3.org/2000/svg" viewBox="0 0 1000 1000"><defs><style>.cls-1{fill:#fff;fill-rule:evenodd;}</style></defs><path class="cls-1" d="M500,0c276,0,500,224,500,500s-224,500-500,500S0,776,0,500,224,0,500,0Zm0,204.68c-173.3,0-307.62,126.94-307.62,298.39,0,89.69,36.77,167.18,96.62,220.72a24.77,24.77,0,0,1,8.29,17.52L299,796a24.64,24.64,0,0,0,34.53,21.79l61-26.93a24.58,24.58,0,0,1,16.4-1.23A334.91,334.91,0,0,0,500,801.47c173.3,0,307.62-127,307.62-298.4S673.3,204.68,500,204.68ZM315.31,590.35,405.67,447a46.19,46.19,0,0,1,66.72-12.32l71.86,53.91a18.48,18.48,0,0,0,22.22-.06l97.06-73.66c12.93-9.84,29.89,5.7,21.16,19.44L594.39,577.6a46.18,46.18,0,0,1-66.72,12.31L455.81,536a18.48,18.48,0,0,0-22.22.06l-97.12,73.72c-12.93,9.84-29.89-5.69-21.16-19.43Z"/></svg>