<svg id="Layer_1" data-name="Layer 1" xmlns="http://www.w3.org/2000/svg" viewBox="0 0 1000 1000"><defs><style>.cls-1{fill:#fff;fill-rule:evenodd;}</style></defs><path class="cls-1" d="M500,0c276,0,500,224,500,500s-224,500-500,500S0,776,0,500,224,0,500,0Zm0,187.5c-84.87,0-95.51.36-128.84,1.88s-56,6.8-75.86,14.53a159.8,159.8,0,0,0-91.4,91.39c-7.72,19.88-13,42.59-14.52,75.86s-1.88,44-1.88,128.84.36,95.51,1.88,128.84,6.8,56,14.52,75.86a159.86,159.86,0,0,0,91.4,91.4c19.88,7.72,42.59,13,75.86,14.52s44,1.88,128.84,1.88,95.51-.36,128.84-1.88,56-6.8,75.86-14.52a159.86,159.86,0,0,0,91.4-91.4c7.72-19.88,13-42.59,14.52-75.86s1.88-44,1.88-128.84-.36-95.51-1.88-128.84-6.8-56-14.52-75.86a159.8,159.8,0,0,0-91.4-91.39c-19.88-7.73-42.59-13-75.86-14.53S584.87,187.5,500,187.5Zm0,56.31c83.44,0,93.32.32,126.28,1.82,30.47,1.39,47,6.48,58,10.76a103.54,103.54,0,0,1,59.31,59.31c4.28,11,9.37,27.55,10.76,58,1.5,33,1.82,42.84,1.82,126.28s-.32,93.32-1.82,126.28c-1.39,30.47-6.48,47-10.76,58a103.54,103.54,0,0,1-59.31,59.31c-11,4.28-27.55,9.37-58,10.76-32.95,1.5-42.83,1.82-126.28,1.82s-93.33-.32-126.28-1.82c-30.47-1.39-47-6.48-58-10.76a103.46,103.46,0,0,1-59.31-59.31c-4.28-11-9.37-27.55-10.76-58-1.51-33-1.82-42.84-1.82-126.28s.31-93.32,1.82-126.28c1.39-30.47,6.48-47,10.76-58a103.46,103.46,0,0,1,59.31-59.31c11-4.28,27.55-9.37,58-10.76,33-1.5,42.84-1.82,126.28-1.82Zm0,95.72A160.47,160.47,0,1,0,660.47,500,160.46,160.46,0,0,0,500,339.53Zm0,264.64A104.17,104.17,0,1,1,604.17,500,104.17,104.17,0,0,1,500,604.17Zm204.31-271a37.5,37.5,0,1,1-37.5-37.5A37.5,37.5,0,0,1,704.31,333.19Z"/></svg>