<svg id="Layer_1" data-name="Layer 1" xmlns="http://www.w3.org/2000/svg" viewBox="0 0 1000 1000"><defs><style>.cls-1{fill:#fff;fill-rule:evenodd;}</style></defs><path class="cls-1" d="M500,0c276,0,500,224,500,500s-224,500-500,500S0,776,0,500,224,0,500,0ZM411.93,765.93c221.26,0,342.24-183.34,342.24-342.23,0-5.24,0-10.48-.25-15.47A246.36,246.36,0,0,0,814,345.87a244,244,0,0,1-69.09,19,120.19,120.19,0,0,0,52.88-66.6,243.63,243.63,0,0,1-76.33,29.19,120.34,120.34,0,0,0-208,82.31,110,110,0,0,0,3.24,27.44c-100-5-188.58-52.88-248-125.72a120.23,120.23,0,0,0,37.42,160.39,118.14,118.14,0,0,1-54.38-15v1.49a120.42,120.42,0,0,0,96.53,118,120,120,0,0,1-31.67,4.24,114.52,114.52,0,0,1-22.7-2.25A120.09,120.09,0,0,0,406.2,661.92,241.8,241.8,0,0,1,256.78,713.3a220,220,0,0,1-28.69-1.74,335.15,335.15,0,0,0,183.84,54.37Z"/></svg>