<svg id="visual" viewBox="0 0 900 600" width="900" height="600" xmlns="http://www.w3.org/2000/svg" xmlns:xlink="http://www.w3.org/1999/xlink" version="1.1"><g transform="translate(421.20775127494096 304.05343865320077)"><path d="M80.6 -129.3C110.4 -106.2 144.8 -94 169.3 -68.9C193.7 -43.9 208.2 -5.9 205.9 31.6C203.6 69.2 184.6 106.3 156.9 133.1C129.2 159.9 92.9 176.4 57.3 180C21.6 183.6 -13.4 174.3 -47.4 163.4C-81.4 152.6 -114.4 140.1 -131.4 116.2C-148.4 92.3 -149.4 57 -148.2 25C-147 -6.9 -143.5 -35.4 -132.4 -60.8C-121.3 -86.1 -102.6 -108.3 -79.2 -134.4C-55.9 -160.6 -27.9 -190.8 -1.3 -188.8C25.3 -186.8 50.7 -152.5 80.6 -129.3" fill="none" stroke="#66da42" stroke-width="6"></path></g></svg>