<svg id="visual" viewBox="0 0 900 600" width="900" height="600" xmlns="http://www.w3.org/2000/svg" xmlns:xlink="http://www.w3.org/1999/xlink" version="1.1"><g transform="translate(444.8754839918498 300.0953252620866)"><path d="M66.5 -115.7C86 -103.9 101.4 -85.7 113.9 -65.4C126.3 -45 135.6 -22.5 137.1 0.8C138.5 24.2 132 48.3 119 67.5C105.9 86.7 86.2 101 65.3 112.9C44.3 124.8 22.2 134.4 0.1 134.1C-21.9 133.9 -43.8 123.8 -63.5 111.2C-83.3 98.6 -101 83.6 -112 64.6C-123.1 45.7 -127.5 22.8 -127 0.3C-126.4 -22.2 -120.8 -44.3 -111.3 -66C-101.8 -87.6 -88.4 -108.8 -69.2 -120.7C-50 -132.6 -25 -135.3 -0.8 -134C23.5 -132.7 47 -127.4 66.5 -115.7" fill="#66da42"></path></g></svg>